<svg class="icon" viewBox="0 0 1024 1024" xmlns="http://www.w3.org/2000/svg" width="16" height="16"><defs><style/></defs><path d="M810.712 2.932a22.008 22.008 0 0 0-22.008 22.007v973.238a22.008 22.008 0 1 0 43.939 0V24.94a21.93 21.93 0 0 0-21.931-22.007zm96.618 0a22.008 22.008 0 0 0-21.93 22.007v973.238a22.008 22.008 0 1 0 43.938 0V24.94a21.93 21.93 0 0 0-21.931-22.007zm96.695 0a22.008 22.008 0 0 0-21.93 22.007v973.238a22.008 22.008 0 1 0 43.938 0V24.94a21.93 21.93 0 0 0-22.008-22.007zm-740.587 0H76.566A67.786 67.786 0 0 0 8.78 70.718v881.604c0 37.497 30.365 67.863 67.786 67.863h186.872a67.863 67.863 0 0 0 67.863-67.863V70.718a67.786 67.786 0 0 0-67.94-67.786zM240.74 328.827H99.34a22.008 22.008 0 1 1 0-43.938h141.4a21.93 21.93 0 1 1 0 43.938zm0-110.114H99.34a22.008 22.008 0 1 1 0-43.939h141.4a22.008 22.008 0 0 1 0 43.939zM657.35 2.932H470.553a67.786 67.786 0 0 0-67.863 67.786v881.604c0 37.497 30.366 67.863 67.863 67.863h186.795a67.863 67.863 0 0 0 67.863-67.863V70.718A67.786 67.786 0 0 0 657.35 2.932zm-22.698 325.895h-141.4a22.008 22.008 0 1 1 0-43.938h141.4a21.93 21.93 0 1 1 0 43.938zm0-110.114h-141.4a22.008 22.008 0 1 1 0-43.939h141.4a22.008 22.008 0 1 1 0 43.939z"/></svg>