<svg class="icon" viewBox="0 0 1024 1024" xmlns="http://www.w3.org/2000/svg" width="16" height="16"><defs><style/></defs><path d="M868.807 155.193c-196.608-197.128-517.006-197.128-713.614 0-196.608 196.608-196.608 517.006 0 714.134 196.608 196.608 517.006 196.608 714.134 0 196.608-197.128 196.608-517.526-.52-714.134zm-58.254 225.735L471.95 741.896c-2.08 2.08-4.16 3.12-6.241 4.161-2.08 1.04-3.121 2.08-5.202 3.12-4.16 2.081-8.842 2.602-13.523 2.602-4.16 0-8.842-1.04-13.003-2.601l-4.161-2.6c-2.08-1.041-4.681-2.601-6.762-4.162 0 0-.52 0-.52-.52l-1.04-1.04L229.05 551.53c-6.762-6.762-10.403-15.604-10.403-24.966 0-9.363 3.641-18.205 10.403-24.967 13.523-13.523 35.889-13.523 49.412-.52l167.48 164.88 313.637-333.4c13.004-13.524 35.89-14.564 49.413-1.561 6.761 6.761 10.922 15.604 10.922 24.966.52 8.842-3.12 17.684-9.362 24.966z"/></svg>