<svg class="icon" viewBox="0 0 1024 1024" xmlns="http://www.w3.org/2000/svg" width="16" height="16"><defs><style/></defs><path d="M963.02 357.244C963.02 160.088 781.73.3 558.073.3c-112.239 0-213.84 40.321-287.15 105.362-45.322 34.395-82.153 78.75-102.989 133.537-12.312 32.448-23.04 76.016-23.513 110.992-.676 43.643 20.743 86.384 1.884 128.866-13.117 29.716-47.209 54.87-69.141 78.567 0 0-61.383 40.706 55.737 46.255 3.302.145 18.126 69.928 21.82 85.886-2.326 3.182-3.694 6.596-3.694 12.088 0 13.377 16.905 24.296 37.705 24.296h12.708c-27.473 3.722-47.283 14.445-47.283 29.235 0 10.23 13.016 23.725 32.51 31.825 0 0-24.03 77.535 11.614 94.637 6.119 2.66 13.991 3.477 24.018 1.753 50.582 2.752 141.105-.835 191.446-.835 0-.918 26.48 140.332 26.48 140.332h454.81c0 .723-43.71-325.034-43.71-325.034 80.02-114.199 107.733-216.426 109.235-301.869 1.596-12.795 2.46-25.735 2.46-38.948zm-239.66-60.496c-32.836 0-60.951-19.408-74.082-47.26l-61.408 35.453c7.686 16.069 12.349 33.851 12.349 52.854 0 25.354-7.697 48.896-20.832 68.48l115.204 66.512c7.411-7.3 17.546-11.85 28.77-11.85 22.667 0 41.046 18.38 41.046 41.048 0 22.67-18.38 41.046-41.046 41.046-22.671 0-41.048-18.376-41.048-41.046 0-4 1.207-7.62 2.275-11.275l-118.374-68.34c-22.44 23.644-53.967 38.568-89.137 38.568-68.01 0-123.141-55.132-123.141-123.14s55.132-123.142 123.14-123.142c41.654 0 78.321 20.814 100.607 52.47l65.086-37.576c-.89-4.847-1.503-9.793-1.503-14.894 0-45.339 36.751-82.095 82.094-82.095 45.339 0 82.093 36.756 82.093 82.095s-36.755 82.093-82.093 82.093z"/></svg>