<svg class="icon" viewBox="0 0 1132 1024" xmlns="http://www.w3.org/2000/svg" width="16" height="16"><path d="M567.17-47.372C258.395-47.372 7.796 203.226 7.796 512s250.599 559.372 559.372 559.372S1126.542 820.774 1126.542 512 875.942-47.372 567.169-47.372zm175.163 807.414l-18.54 17.9c-10.228 10.228-26.85 10.228-37.078 0l-169.41-165.575c-5.753-5.753-5.114-17.26-5.114-28.767V259.483c0-14.064 11.507-25.571 26.21-25.571h26.211c14.704 0 26.21 11.507 26.21 25.571v317.085l151.51 148.313c10.23 9.59 10.23 25.571 0 35.16z"/></svg>