<svg class="icon" viewBox="0 0 1024 1024" xmlns="http://www.w3.org/2000/svg" width="16" height="16"><path d="M251.172 146.308h-51.06c-24.2 0-51.101 26.902-51.101 51.101v392.553h104.863V146.308h-2.702zM460.899 611.5c10.769 34.928 43.035 59.127 83.367 59.127 40.332 0 69.895-24.199 83.366-59.127 5.364-18.835 24.2-18.835 42.994-18.835h209.728V119.447c0-24.2-29.564-51.1-51.06-51.1h-449.06c-24.198 0-51.06 26.9-51.06 51.1v470.515h77.962c18.836 0 48.399 2.702 53.763 21.537zm-2.662-408.726h282.325c24.2 0 42.994 18.835 42.994 45.737 0 24.2-18.794 42.994-42.994 45.696H458.237c-24.2 0-43.034-18.835-43.034-45.696 0-26.902 18.835-45.737 43.034-45.737zm0 177.462h282.325c24.2 0 42.994 18.835 42.994 45.737 0 24.199-18.794 42.994-42.994 45.696H458.237c-24.2 0-43.034-18.835-43.034-45.696 0-24.2 18.835-45.737 43.034-45.737zm497.417 314.59c0-24.199-29.564-51.06-51.101-51.06H670.626c-29.563 53.763-61.829 77.962-126.36 77.962s-107.566-24.2-137.13-77.962H119.447c-24.2 0-51.1 26.861-51.1 51.06v215.132c0 24.2 18.834 42.994 43.034 45.697h801.238c24.2 0 43.035-18.835 43.035-45.697V694.826z"/></svg>